<svg width="15" height="15" viewBox="0 0 15 15" fill="none" xmlns="http://www.w3.org/2000/svg">
<path d="M7.20328 11.7443C7.20328 11.7443 10.0164 8.92866 11.112 7.83241C11.2039 7.74116 11.2495 7.62116 11.2495 7.50116C11.2495 7.38116 11.2039 7.26116 11.112 7.16991C10.017 6.07366 7.20453 3.25928 7.20453 3.25928C7.1139 3.16866 6.99453 3.12366 6.87515 3.12366C6.75578 3.12428 6.63578 3.16991 6.5439 3.26178C6.36078 3.44491 6.36015 3.74053 6.5414 3.92241L9.6514 7.03241L0.468904 7.03241C0.210154 7.03241 0.000153947 7.24241 0.000153924 7.50116C0.000153902 7.75991 0.210154 7.96991 0.468904 7.96991L9.6514 7.96991L6.54015 11.0818C6.35953 11.2624 6.36078 11.5574 6.5439 11.7405C6.63578 11.8324 6.75578 11.8787 6.87515 11.8787C6.99453 11.8793 7.11265 11.8343 7.20328 11.7443Z" fill="black"/>
</svg>
