<svg width="33" height="35" viewBox="0 0 33 35" fill="none" xmlns="http://www.w3.org/2000/svg">
<path d="M27.5 17.5V26.625C27.5 28.5106 27.5 29.4534 26.9142 30.0392C26.3284 30.625 25.3856 30.625 23.5 30.625H9.14583C8.5458 30.625 8.24578 30.625 7.99518 30.5822C6.74013 30.368 5.75703 29.3849 5.54278 28.1298C5.5 27.8792 5.5 27.5792 5.5 26.9792M5.5 26.9792V8.375C5.5 6.48938 5.5 5.54657 6.08579 4.96079C6.67157 4.375 7.61438 4.375 9.5 4.375H23.5C25.3856 4.375 26.3284 4.375 26.9142 4.96079C27.5 5.54657 27.5 6.48938 27.5 8.375V19.3333C27.5 21.219 27.5 22.1618 26.9142 22.7475C26.3284 23.3333 25.3856 23.3333 23.5 23.3333H9.14583C8.5458 23.3333 8.24578 23.3333 7.99518 23.3761C6.74013 23.5904 5.75703 24.5735 5.54278 25.8285C5.5 26.0791 5.5 26.3791 5.5 26.9792Z" stroke="#090909" stroke-width="2"/>
<path d="M12.375 14.5834L14.3974 16.7284C14.7921 17.147 15.4579 17.147 15.8526 16.7284L20.625 11.6667" stroke="#090909" stroke-width="2" stroke-linecap="round"/>
</svg>
