<svg width="34" height="34" viewBox="0 0 34 34" fill="none" xmlns="http://www.w3.org/2000/svg">
<path d="M9.91699 6.66675H24.083C25.4466 6.66675 26.3692 6.66884 27.0586 6.76147C27.7193 6.8503 28.0147 7.00569 28.2129 7.20386C28.4111 7.40202 28.5664 7.69749 28.6553 8.35815C28.7479 9.04754 28.75 9.97011 28.75 11.3337V23.0837H5.25V11.3337C5.25 9.97011 5.25209 9.04754 5.34473 8.35815C5.43355 7.69749 5.58895 7.40202 5.78711 7.20386C5.98527 7.00569 6.28074 6.8503 6.94141 6.76147C7.45848 6.69199 8.10656 6.67364 8.97363 6.6687L9.91699 6.66675Z" stroke="#AAAAAA" stroke-width="2"/>
<path d="M28.8057 23.0833C29.8795 23.0833 30.7499 23.9538 30.75 25.0276C30.75 26.623 29.4567 27.9161 27.8613 27.9163H6.13867C4.54328 27.9161 3.25 26.623 3.25 25.0276C3.25006 23.9538 4.12054 23.0833 5.19434 23.0833H28.8057Z" stroke="#AAAAAA" stroke-width="2"/>
</svg>
