<svg width="19" height="19" viewBox="0 0 19 19" fill="none" xmlns="http://www.w3.org/2000/svg">
<path d="M16.625 9.5C16.625 8.01128 16.1587 6.55995 15.2915 5.34985C14.4244 4.13974 13.2 3.23166 11.7903 2.75312C10.3805 2.27459 8.85634 2.24965 7.43172 2.6818C6.0071 3.11395 4.75363 3.98149 3.84736 5.16257C2.94108 6.34366 2.42752 7.77895 2.37881 9.26688C2.33011 10.7548 2.74869 12.2206 3.57578 13.4584C4.40287 14.6963 5.59691 15.6439 6.99022 16.1683C8.38352 16.6927 9.90609 16.7675 11.3441 16.3822" stroke="#C2C2C2" stroke-width="2" stroke-linecap="round"/>
<circle cx="9.50016" cy="9.50016" r="3.16667" stroke="#C2C2C2" stroke-width="2"/>
<path d="M12.6665 7.125V10.6875C12.6665 11.7806 13.5526 12.6667 14.6457 12.6667C15.7387 12.6667 16.6248 11.7806 16.6248 10.6875V9.5" stroke="#C2C2C2" stroke-width="2" stroke-linecap="round"/>
</svg>
