<svg width="34" height="33" viewBox="0 0 34 33" fill="none" xmlns="http://www.w3.org/2000/svg">
<path d="M5.66675 10.875C5.66675 8.98938 5.66675 8.04657 6.25253 7.46079C6.83832 6.875 7.78113 6.875 9.66675 6.875H12.5448C13.3455 6.875 13.7458 6.875 14.1073 7.02158C14.4688 7.16816 14.7561 7.447 15.3307 8.00468L17.2528 9.87032C17.8274 10.428 18.1147 10.7068 18.4762 10.8534C18.8377 11 19.238 11 20.0387 11H24.3334C26.219 11 27.1618 11 27.7476 11.5858C28.3334 12.1716 28.3334 13.1144 28.3334 15V22.125C28.3334 24.0106 28.3334 24.9534 27.7476 25.5392C27.1618 26.125 26.219 26.125 24.3334 26.125H9.66674C7.78113 26.125 6.83832 26.125 6.25253 25.5392C5.66675 24.9534 5.66675 24.0106 5.66675 22.125V10.875Z" stroke="#AAAAAA" stroke-width="2"/>
</svg>
