<svg width="444" height="195" viewBox="0 0 444 195" fill="none" xmlns="http://www.w3.org/2000/svg">
<rect x="124" y="133" width="30" height="62" rx="10" fill="url(#paint0_linear_71_36)"/>
<rect x="83" y="155" width="30" height="40" rx="10" fill="url(#paint1_linear_71_36)"/>
<rect x="42" y="163" width="30" height="32" rx="10" fill="url(#paint2_linear_71_36)"/>
<rect y="169" width="30" height="26" rx="10" fill="url(#paint3_linear_71_36)"/>
<rect y="98.2262" width="35.2854" height="35.2854" rx="10" transform="rotate(-11.8174 0 98.2262)" fill="url(#paint4_linear_71_36)"/>
<rect x="166" y="123" width="30" height="72" rx="10" fill="url(#paint5_linear_71_36)"/>
<rect x="206" y="106" width="30" height="89" rx="10" fill="url(#paint6_linear_71_36)"/>
<rect x="246" y="123" width="30" height="72" rx="10" fill="url(#paint7_linear_71_36)"/>
<rect x="288" y="84" width="30" height="111" rx="10" fill="url(#paint8_linear_71_36)"/>
<rect x="330" y="61" width="30" height="134" rx="10" fill="#A5CD8D"/>
<rect x="372" y="30" width="30" height="165" rx="10" fill="url(#paint9_linear_71_36)"/>
<rect x="414" y="22" width="30" height="173" rx="10" fill="url(#paint10_linear_71_36)"/>
<g clip-path="url(#clip0_71_36)">
<path d="M26.252 103.446C23.1727 103.874 16.4111 105.29 13.4226 106.131C10.1867 107.042 10.2149 109.105 11.2825 114.33C12.3971 119.535 13.197 121.446 16.5302 120.983C19.6059 120.555 26.367 119.142 29.3596 118.299C32.5955 117.388 32.5672 115.324 31.4996 110.1C30.3851 104.895 29.5852 102.984 26.252 103.446ZM19.5689 116.113L18.159 109.374L25.6017 111.328L19.5689 116.113Z" fill="white"/>
</g>
<rect x="244.774" y="14" width="44" height="44" rx="10" transform="rotate(10.1768 244.774 14)" fill="url(#paint11_linear_71_36)"/>
<g clip-path="url(#clip1_71_36)">
<path d="M265.432 26.6856C266.845 26.9187 268.243 27.1803 269.643 27.421C269.398 29.0536 269.846 30.6428 270.78 31.9283L270.779 31.9264C271.812 33.161 273.274 34.1038 274.997 34.5287L275.021 34.5346L274.298 38.562C272.659 38.228 271.173 37.5974 269.886 36.7406L269.952 36.7805C269.331 36.3578 268.815 35.9458 268.335 35.5029L268.375 35.5381C267.841 38.4544 267.337 41.3763 266.784 44.2784C266.429 45.7443 265.656 47.0006 264.602 47.9763L264.624 47.9546C262.861 49.5913 260.334 50.4195 257.7 50.0227L257.688 50.0205C257.581 50.0063 257.456 49.9863 257.33 49.9637C255.84 49.6962 254.517 49.0608 253.45 48.1784L253.481 48.203C251.538 46.6085 250.419 44.2761 250.574 41.8251L250.577 41.7917C250.645 41.288 250.724 40.7863 250.833 40.3008C251.942 36.5547 255.921 34.2171 260.112 34.9696C260.583 35.0541 261.038 35.1746 261.474 35.3263L261.427 35.3113C261.183 36.7938 260.853 38.2617 260.588 39.7404C260.245 39.5526 259.838 39.406 259.399 39.3273C257.791 39.0385 256.251 39.7477 255.505 40.9899L255.493 41.0125C255.317 41.3335 255.18 41.7142 255.107 42.1205C255.078 42.2852 255.06 42.4504 255.052 42.614L255.053 42.5945C255.046 44.2821 256.335 45.788 258.156 46.115C258.209 46.1244 258.26 46.1329 258.312 46.1398L258.305 46.1384C259.571 46.3294 260.778 45.8963 261.563 45.0772L261.574 45.0644C261.858 44.8082 262.08 44.4766 262.203 44.095L262.205 44.0839C262.634 42.3143 262.91 40.528 263.242 38.7409C263.975 34.7154 264.676 30.6939 265.429 26.6826L265.432 26.6856Z" fill="white"/>
</g>
<rect x="100" y="55.1293" width="43" height="43" rx="10" transform="rotate(-15 100 55.1293)" fill="url(#paint12_linear_71_36)"/>
<rect x="398.098" width="39.3991" height="39.3991" rx="10" transform="rotate(4.50981 398.098 0)" fill="url(#paint13_linear_71_36)"/>
<g clip-path="url(#clip2_71_36)">
<path d="M123.67 59.8446C127.151 58.9116 127.568 58.814 128.961 58.5084C132.537 57.7224 134.637 58.9568 135.738 62.4215C136.169 63.7792 136.292 64.189 137.225 67.6706C138.158 71.1534 138.255 71.5687 138.562 72.96C139.339 76.5079 138.143 78.629 134.649 79.7376C133.29 80.1692 132.883 80.2923 129.399 81.2258C125.917 82.1587 125.501 82.2563 124.109 82.5616C120.523 83.3489 118.43 82.1046 117.331 78.6475C116.9 77.2898 116.777 76.8814 115.843 73.3986C114.911 69.917 114.814 69.5013 114.508 68.109C113.73 64.559 114.927 62.44 118.421 61.3314C119.78 60.9009 120.188 60.7775 123.67 59.8446ZM123.04 57.4941C119.499 58.443 119.059 58.577 117.685 59.0128C113.008 60.499 111.08 63.8318 112.133 68.6301C112.442 70.0393 112.545 70.4867 113.494 74.0282C114.443 77.5696 114.577 78.01 115.013 79.384C116.499 84.0615 119.832 85.9893 124.63 84.9366C126.039 84.6266 126.487 84.523 130.028 83.5741C133.57 82.6252 134.01 82.4909 135.384 82.0551C140.057 80.57 141.991 77.2355 140.935 72.4381C140.627 71.03 140.523 70.5815 139.574 67.04C138.625 63.4986 138.491 63.0593 138.055 61.6853C136.575 57.011 133.237 55.0797 128.439 56.1324C127.03 56.4413 126.581 56.5452 123.04 57.4941ZM124.74 63.8381C121.042 64.8289 118.847 68.6304 119.838 72.3283C120.829 76.0262 124.631 78.2221 128.329 77.2312C132.026 76.2404 134.221 72.4389 133.23 68.7399C132.239 65.042 128.438 62.8472 124.74 63.8381ZM127.699 74.8808C125.298 75.524 122.831 74.1003 122.187 71.6988C121.544 69.2983 122.969 66.8306 125.369 66.1874C127.77 65.5442 130.238 66.969 130.881 69.3694C131.524 71.7709 130.099 74.2376 127.699 74.8808ZM131.211 60.144C130.346 60.3757 129.833 61.2644 130.064 62.1283C130.296 62.9922 131.185 63.5053 132.05 63.2736C132.913 63.0421 133.425 62.1537 133.194 61.2898C132.963 60.4259 132.075 59.9125 131.211 60.144Z" fill="white"/>
</g>
<path d="M416.377 14.7711C414.155 10.1754 406.87 10.9143 406.451 16.4284C406.175 20.058 410.112 24.2793 414.587 29.3362C414.762 29.5347 415.001 29.645 415.245 29.6636C415.49 29.6822 415.742 29.6092 415.945 29.4394C421.153 25.1008 425.663 21.5402 425.939 17.9097C426.359 12.3771 419.246 10.5958 416.377 14.7711Z" fill="#313131"/>
<defs>
<linearGradient id="paint0_linear_71_36" x1="124" y1="164" x2="154" y2="164" gradientUnits="userSpaceOnUse">
<stop stop-color="#323232"/>
<stop offset="1" stop-color="#2A2A2A"/>
</linearGradient>
<linearGradient id="paint1_linear_71_36" x1="83" y1="175" x2="113" y2="175" gradientUnits="userSpaceOnUse">
<stop stop-color="#323232"/>
<stop offset="1" stop-color="#2A2A2A"/>
</linearGradient>
<linearGradient id="paint2_linear_71_36" x1="42" y1="179" x2="72" y2="179" gradientUnits="userSpaceOnUse">
<stop stop-color="#323232"/>
<stop offset="1" stop-color="#2A2A2A"/>
</linearGradient>
<linearGradient id="paint3_linear_71_36" x1="0" y1="182" x2="30" y2="182" gradientUnits="userSpaceOnUse">
<stop stop-color="#323232"/>
<stop offset="1" stop-color="#2A2A2A"/>
</linearGradient>
<linearGradient id="paint4_linear_71_36" x1="17.6427" y1="98.2262" x2="17.6427" y2="133.512" gradientUnits="userSpaceOnUse">
<stop stop-color="#323232"/>
<stop offset="1" stop-color="#2A2A2A"/>
</linearGradient>
<linearGradient id="paint5_linear_71_36" x1="166" y1="159" x2="196" y2="159" gradientUnits="userSpaceOnUse">
<stop stop-color="#323232"/>
<stop offset="1" stop-color="#2A2A2A"/>
</linearGradient>
<linearGradient id="paint6_linear_71_36" x1="206" y1="150.5" x2="236" y2="150.5" gradientUnits="userSpaceOnUse">
<stop stop-color="#323232"/>
<stop offset="1" stop-color="#2A2A2A"/>
</linearGradient>
<linearGradient id="paint7_linear_71_36" x1="246" y1="159" x2="276" y2="159" gradientUnits="userSpaceOnUse">
<stop stop-color="#323232"/>
<stop offset="1" stop-color="#2A2A2A"/>
</linearGradient>
<linearGradient id="paint8_linear_71_36" x1="288" y1="139.5" x2="318" y2="139.5" gradientUnits="userSpaceOnUse">
<stop stop-color="#323232"/>
<stop offset="1" stop-color="#2A2A2A"/>
</linearGradient>
<linearGradient id="paint9_linear_71_36" x1="372" y1="112.5" x2="402" y2="112.5" gradientUnits="userSpaceOnUse">
<stop stop-color="#323232"/>
<stop offset="1" stop-color="#2A2A2A"/>
</linearGradient>
<linearGradient id="paint10_linear_71_36" x1="414" y1="108.5" x2="444" y2="108.5" gradientUnits="userSpaceOnUse">
<stop stop-color="#323232"/>
<stop offset="1" stop-color="#2A2A2A"/>
</linearGradient>
<linearGradient id="paint11_linear_71_36" x1="266.774" y1="14" x2="266.774" y2="58" gradientUnits="userSpaceOnUse">
<stop stop-color="#323232"/>
<stop offset="1" stop-color="#2A2A2A"/>
</linearGradient>
<linearGradient id="paint12_linear_71_36" x1="121.5" y1="55.1293" x2="121.5" y2="98.1293" gradientUnits="userSpaceOnUse">
<stop stop-color="#323232"/>
<stop offset="1" stop-color="#2A2A2A"/>
</linearGradient>
<linearGradient id="paint13_linear_71_36" x1="417.797" y1="0" x2="417.797" y2="39.3991" gradientUnits="userSpaceOnUse">
<stop stop-color="#A5CD8D"/>
<stop offset="1" stop-color="#A5CD8D"/>
</linearGradient>
<clipPath id="clip0_71_36">
<rect width="20.6548" height="20.6548" fill="white" transform="translate(9.16748 104.221) rotate(-11.8174)"/>
</clipPath>
<clipPath id="clip1_71_36">
<rect width="28" height="26" fill="white" transform="translate(251.235 23.2877) rotate(10.1768)"/>
</clipPath>
<clipPath id="clip2_71_36">
<rect width="27" height="27" fill="white" transform="translate(110 60.9882) rotate(-15)"/>
</clipPath>
</defs>
</svg>
