<svg width="376" height="177" viewBox="0 0 376 177" fill="none" xmlns="http://www.w3.org/2000/svg">
<rect x="244" y="69.1765" width="41" height="42" rx="20.5" fill="url(#paint0_linear_71_37)"/>
<rect x="161" y="72.1765" width="41" height="41" rx="20.5" fill="url(#paint1_linear_71_37)"/>
<rect x="289" y="123" width="36" height="37" rx="18" fill="url(#paint2_linear_71_37)"/>
<rect x="282" y="10" width="35" height="35" rx="17.5" fill="url(#paint3_linear_71_37)"/>
<rect x="216.627" y="136" width="34.8633" height="34.8633" rx="17.4316" transform="rotate(9.28781 216.627 136)" fill="url(#paint4_linear_71_37)"/>
<rect x="119.859" y="107.93" width="35.2557" height="35.2557" rx="17.6279" transform="rotate(135 119.859 107.93)" fill="url(#paint5_linear_71_37)"/>
<rect x="132.888" y="26.5535" width="35.829" height="36.1381" rx="17.9145" transform="rotate(135 132.888 26.5535)" fill="url(#paint6_linear_71_37)"/>
<rect x="18" y="53" width="35" height="35" rx="17.5" fill="url(#paint7_linear_71_37)"/>
<g clip-path="url(#clip0_71_37)">
<path d="M264.971 79.8519C266.148 79.8354 267.316 79.844 268.483 79.8354C268.522 81.1683 269.114 82.3679 270.057 83.2565L270.055 83.2552C271.069 84.0893 272.389 84.63 273.844 84.7219L273.864 84.7232V88.0281C272.49 87.9966 271.197 87.7072 270.032 87.2097L270.091 87.232C269.528 86.9846 269.051 86.7307 268.598 86.4472L268.636 86.4695C268.627 88.8641 268.644 91.2588 268.618 93.6449C268.544 94.861 268.101 95.97 267.391 96.896L267.405 96.8756C266.218 98.4283 264.294 99.4475 262.107 99.5079H262.097C262.009 99.5118 261.905 99.5138 261.8 99.5138C260.556 99.5138 259.394 99.1975 258.403 98.6482L258.432 98.6633C256.63 97.673 255.386 95.9785 255.156 94.0078L255.153 93.9809C255.135 93.5708 255.127 93.1606 255.145 92.759C255.497 89.6228 258.375 87.1966 261.873 87.1966C262.266 87.1966 262.651 87.2275 263.026 87.2859L262.986 87.2806C263.003 88.494 262.95 89.7081 262.95 90.9215C262.646 90.8211 262.295 90.7627 261.929 90.7627C260.586 90.7627 259.444 91.5462 259.022 92.6402L259.015 92.6599C258.92 92.9401 258.864 93.2623 258.864 93.5957C258.864 93.7309 258.874 93.8648 258.891 93.996L258.889 93.9803C259.128 95.323 260.389 96.3362 261.909 96.3362C261.953 96.3362 261.996 96.3355 262.039 96.3336H262.032C263.084 96.3047 263.997 95.7882 264.513 95.025L264.52 95.0132C264.712 94.7691 264.843 94.4738 264.887 94.1529L264.888 94.1437C264.978 92.6756 264.942 91.2161 264.951 89.7481C264.959 86.4432 264.942 83.1462 264.969 79.8499L264.971 79.8519Z" fill="#333333"/>
</g>
<path d="M104.472 44.5546L97.0001 91" stroke="url(#paint8_linear_71_37)" stroke-width="3"/>
<path d="M49 61L92 34" stroke="url(#paint9_linear_71_37)" stroke-width="3"/>
<path d="M275.917 71.474L292 43" stroke="#2D2D2D" stroke-width="3"/>
<path d="M248 154.279L290 146.801" stroke="#2D2D2D" stroke-width="3"/>
<path d="M165 79.1765L120 37.1765" stroke="#2D2D2D" stroke-width="3"/>
<path d="M161 96L112 105" stroke="#2D2D2D" stroke-width="3"/>
<path d="M123.037 169.756L100.96 124" stroke="url(#paint10_linear_71_37)" stroke-width="3"/>
<path d="M194.462 22L186.338 72.1498" stroke="url(#paint11_linear_71_37)" stroke-width="3"/>
<path d="M18.1758 135.832L32.1902 87" stroke="url(#paint12_linear_71_37)" stroke-width="3"/>
<path d="M367.639 22.7009L317 26.7816" stroke="url(#paint13_linear_71_37)" stroke-width="3"/>
<path d="M375.709 145.859L325 142.753" stroke="url(#paint14_linear_71_37)" stroke-width="3"/>
<path d="M296 127L278.395 105.668" stroke="#2D2D2D" stroke-width="3"/>
<path d="M221 142L193.943 109.212" stroke="#2D2D2D" stroke-width="3"/>
<path d="M203.048 91.7162L243.188 90.7323" stroke="#2D2D2D" stroke-width="3"/>
<g clip-path="url(#clip1_71_37)">
<path d="M181 84.0691C183.67 84.0691 183.987 84.0796 185.042 84.1304C187.752 84.2599 189.017 85.61 189.141 88.4345C189.189 89.5414 189.198 89.8739 189.198 92.6774C189.198 95.4818 189.188 95.8134 189.141 96.9203C189.017 99.7421 187.754 101.095 185.042 101.224C183.987 101.275 183.672 101.286 181 101.286C178.33 101.286 178.013 101.275 176.959 101.224C174.243 101.094 172.983 99.7378 172.86 96.9194C172.812 95.8125 172.802 95.4809 172.802 92.6765C172.802 89.873 172.812 89.5414 172.86 88.4336C172.984 85.61 174.247 84.259 176.959 84.1295C178.014 84.0796 178.33 84.0691 181 84.0691ZM181 82.1765C178.284 82.1765 177.944 82.1888 176.878 82.2395C173.246 82.4145 171.227 84.5303 171.061 88.347C171.012 89.4679 171 89.8249 171 92.6765C171 95.5281 171.012 95.886 171.06 97.006C171.227 100.819 173.242 102.939 176.877 103.114C177.944 103.164 178.284 103.177 181 103.177C183.716 103.177 184.057 103.164 185.123 103.114C188.752 102.939 190.775 100.823 190.939 97.006C190.988 95.886 191 95.5281 191 92.6765C191 89.8249 190.988 89.4679 190.94 88.3479C190.777 84.5381 188.759 82.4154 185.124 82.2404C184.057 82.1888 183.716 82.1765 181 82.1765ZM181 87.2848C178.164 87.2848 175.865 89.6989 175.865 92.6765C175.865 95.6541 178.164 98.0691 181 98.0691C183.836 98.0691 186.135 95.655 186.135 92.6765C186.135 89.6989 183.836 87.2848 181 87.2848ZM181 96.1765C179.159 96.1765 177.667 94.6103 177.667 92.6765C177.667 90.7436 179.159 89.1765 181 89.1765C182.841 89.1765 184.333 90.7436 184.333 92.6765C184.333 94.6103 182.841 96.1765 181 96.1765ZM186.338 85.8121C185.675 85.8121 185.137 86.3765 185.137 87.0721C185.137 87.7678 185.675 88.3321 186.338 88.3321C187.001 88.3321 187.537 87.7678 187.537 87.0721C187.537 86.3765 187.001 85.8121 186.338 85.8121Z" fill="#333333"/>
</g>
<path d="M102.808 19.1967C102.699 19.2166 102.412 19.2895 102.173 19.3623C100.7 19.8327 99.5945 20.9788 99.1442 22.5025C99.0214 22.9331 98.9941 23.1849 99.001 23.8606C99.0078 25.1657 99.3557 26.2654 100.188 27.6367C101.02 29.0015 101.737 29.8693 104.173 32.4729C106.301 34.7452 107.202 35.8515 107.713 36.8254C107.809 37.0175 107.904 37.1765 107.925 37.1765C107.939 37.1765 108.061 36.9778 108.198 36.726C108.75 35.7124 109.494 34.8181 111.903 32.2543C112.81 31.3003 113.751 30.2801 113.997 29.9886C115.416 28.3324 116.365 26.7291 116.726 25.3578C116.89 24.7218 117.088 22.8867 116.958 23.165C116.917 23.2577 116.91 23.1915 116.931 22.9662C116.958 22.7145 116.951 22.6615 116.897 22.7344C116.835 22.8139 116.828 22.7807 116.863 22.6085C116.897 22.4627 116.89 22.4031 116.842 22.4296C116.801 22.4495 116.788 22.423 116.801 22.3501C116.822 22.2905 116.713 21.999 116.562 21.7075C115.73 20.1043 114.256 19.21 112.469 19.21C111.671 19.2166 111.295 19.2961 110.586 19.6273C109.214 20.2633 108.239 21.5618 108.014 23.0656C107.993 23.1849 107.959 23.112 107.898 22.8337C107.516 21.1312 106.335 19.8327 104.725 19.3425C104.316 19.2166 103.224 19.1371 102.808 19.1967Z" fill="#6C6C6C"/>
<path d="M301.808 133.02C301.699 133.04 301.412 133.113 301.173 133.186C299.7 133.656 298.595 134.802 298.144 136.326C298.021 136.757 297.994 137.008 298.001 137.684C298.008 138.989 298.356 140.089 299.188 141.46C300.02 142.825 300.737 143.693 303.173 146.296C305.301 148.569 306.202 149.675 306.713 150.649C306.809 150.841 306.904 151 306.925 151C306.939 151 307.061 150.801 307.198 150.55C307.75 149.536 308.494 148.642 310.903 146.078C311.81 145.124 312.751 144.104 312.997 143.812C314.416 142.156 315.365 140.553 315.726 139.181C315.89 138.545 316.088 136.71 315.958 136.988C315.917 137.081 315.91 137.015 315.931 136.79C315.958 136.538 315.951 136.485 315.897 136.558C315.835 136.637 315.828 136.604 315.863 136.432C315.897 136.286 315.89 136.227 315.842 136.253C315.801 136.273 315.788 136.246 315.801 136.174C315.822 136.114 315.713 135.822 315.562 135.531C314.73 133.928 313.256 133.033 311.469 133.033C310.671 133.04 310.295 133.12 309.586 133.451C308.214 134.087 307.239 135.385 307.014 136.889C306.993 137.008 306.959 136.935 306.898 136.657C306.516 134.955 305.335 133.656 303.725 133.166C303.316 133.04 302.224 132.961 301.808 133.02Z" fill="#565656"/>
<path d="M34.9362 60.2739C32.8363 60.7284 31.5013 62.4102 31.6019 64.4687C31.6556 65.5726 32.0246 66.3453 32.9973 67.3518C33.3127 67.683 33.7018 68.1375 33.8628 68.3648C34.1781 68.8193 34.8355 70.1051 34.7752 70.1635C34.7081 70.2284 34.0439 69.7219 33.6615 69.3193C31.9575 67.5076 28.9721 67.4557 27.2211 69.2089C25.5104 70.9167 25.611 73.657 27.4358 75.2155C27.9255 75.631 28.8715 76.0726 29.5222 76.1895C30.1797 76.3129 30.5621 76.3129 31.1927 76.196C32.1386 76.0207 32.8028 75.67 33.628 74.9168C34.1982 74.3973 35.3119 73.644 35.3924 73.7155C35.4595 73.7869 35.2112 75.3194 35.0033 76.0726C34.6477 77.3843 34.1647 78.3194 33.4804 79.0142C32.937 79.5726 32.5076 79.8453 31.8569 80.0272L31.347 80.1765H36.0431C40.6118 80.17 40.7258 80.17 40.3032 80.0596C38.5656 79.6116 37.4184 78.0272 36.8213 75.2479C36.7475 74.9103 36.667 74.4297 36.6402 74.183L36.5932 73.7284L36.8549 73.8843C37.358 74.1765 37.7203 74.4232 38.0692 74.709C38.257 74.8583 38.4314 74.9882 38.4583 74.9882C38.4851 74.9882 38.6528 75.1181 38.8272 75.2739C39.2365 75.6246 39.9879 75.9882 40.6051 76.131C41.2357 76.2739 42.45 76.2284 43.0068 76.0336C43.7246 75.7869 44.2144 75.4947 44.7376 74.9882C45.5964 74.1635 45.9318 73.4427 45.9855 72.2934C46.019 71.6895 45.9989 71.4882 45.8781 71.0271C45.7976 70.7219 45.7171 70.4167 45.7037 70.3518C45.6433 70.0791 45.2073 69.4947 44.7511 69.0791C43.6575 68.0661 41.9871 67.67 40.5246 68.0791C39.8939 68.2544 39.1761 68.657 38.4918 69.2154C38.143 69.5012 37.7069 69.8388 37.5325 69.9622C37.2306 70.1765 37.2104 70.183 37.2507 70.0401C37.3446 69.7284 37.9484 68.5791 38.1966 68.2219C38.3442 68.0206 38.7199 67.5791 39.0352 67.2414C40.0214 66.1895 40.33 65.4947 40.33 64.3063C40.33 63.2998 40.1086 62.644 39.478 61.8323C38.4918 60.5661 36.5932 59.9167 34.9362 60.2739Z" fill="#6C6C6C"/>
<path d="M299.492 17.0398C299.479 17.0702 299.414 17.2981 299.355 17.5487C299.289 17.7918 299.125 18.2855 298.981 18.6501C298.836 19.0071 298.725 19.3186 298.725 19.3338C298.731 19.349 298.705 19.3869 298.672 19.4097C298.64 19.4325 298.469 19.6908 298.298 19.987C297.767 20.8909 297.019 21.9164 296.166 22.919C294.94 24.347 293.982 25.1294 291.325 26.8689L290 27.7348L290.308 27.8336C291.286 28.1374 292.867 28.9881 293.838 29.7249C295.917 31.3201 297.478 33.3709 298.567 35.9384C298.922 36.7587 299.414 38.2779 299.525 38.9007C299.565 39.0754 299.532 39.1666 299.893 37.8601C300.811 34.5483 302.707 31.6771 305.285 29.7097C306.262 28.9653 307.876 28.0918 308.729 27.8411C308.893 27.7956 309.018 27.7348 308.998 27.7196C308.985 27.6968 308.631 27.5525 308.211 27.393C305.39 26.2916 303.009 24.1723 301.323 21.2555C300.785 20.3212 300.083 18.7109 299.781 17.7082C299.558 16.979 299.538 16.9411 299.492 17.0398ZM298.43 20.025C298.371 20.1465 298.312 20.2529 298.292 20.2529C298.279 20.2529 298.305 20.1465 298.364 20.025C298.423 19.8959 298.482 19.7971 298.502 19.7971C298.515 19.7971 298.489 19.8959 298.43 20.025Z" fill="#6C6C6C"/>
<path d="M95.3042 97.4222C94.6713 98.3687 93.8784 99.1586 91.1577 101.508C88.2988 103.986 87.2803 105.083 86.5747 106.444C86.1164 107.33 86 107.793 86 108.725C86 109.379 86.0291 109.577 86.1746 109.917C87.0112 111.946 89.5209 113.076 91.9724 112.532C92.6344 112.389 93.631 111.885 94.1402 111.442C94.4021 111.211 94.6131 111.054 94.6131 111.081C94.6058 111.258 94.3803 112.402 94.213 113.111C93.762 115.003 92.9254 116.624 92.0161 117.373C91.6814 117.645 90.9758 117.999 90.5393 118.108C90.372 118.156 92.0379 118.177 95.4497 118.177C100.462 118.177 100.6 118.177 100.215 118.061C99.4507 117.829 98.9705 117.509 98.3668 116.808C97.4793 115.766 96.6572 113.539 96.3226 111.279L96.2717 110.938L96.6645 111.292C97.1883 111.776 97.3483 111.885 97.9303 112.157C98.7159 112.525 99.247 112.634 100.251 112.634C101.255 112.634 101.764 112.525 102.615 112.144C103.328 111.817 104.237 110.993 104.572 110.38C105.496 108.651 104.921 106.594 102.877 104.313C102.251 103.619 101.102 102.556 99.1233 100.847C97.1374 99.1313 96.599 98.5866 95.6097 97.252C95.5151 97.1294 95.5006 97.1362 95.3042 97.4222Z" fill="#6C6C6C"/>
<path d="M230.345 147.211C229.846 148.022 229.22 148.699 227.072 150.712C224.815 152.837 224.011 153.777 223.454 154.944C223.092 155.703 223 156.099 223 156.899C223 157.459 223.023 157.629 223.138 157.92C223.798 159.66 225.78 160.629 227.715 160.162C228.238 160.039 229.024 159.607 229.427 159.228C229.633 159.029 229.8 158.895 229.8 158.918C229.794 159.07 229.616 160.051 229.484 160.658C229.128 162.28 228.467 163.669 227.75 164.311C227.485 164.545 226.928 164.848 226.584 164.942C226.452 164.982 227.767 165 230.46 165C234.417 165 234.526 165 234.222 164.901C233.619 164.702 233.24 164.428 232.763 163.827C232.063 162.934 231.414 161.025 231.149 159.088L231.109 158.796L231.419 159.099C231.833 159.514 231.959 159.607 232.419 159.841C233.039 160.156 233.458 160.249 234.251 160.249C235.043 160.249 235.445 160.156 236.117 159.829C236.68 159.549 237.398 158.843 237.662 158.317C238.391 156.835 237.938 155.072 236.324 153.117C235.83 152.522 234.923 151.611 233.361 150.146C231.793 148.676 231.368 148.209 230.587 147.065C230.512 146.96 230.5 146.965 230.345 147.211Z" fill="#6C6C6C"/>
<defs>
<linearGradient id="paint0_linear_71_37" x1="244" y1="90.1765" x2="285" y2="90.1765" gradientUnits="userSpaceOnUse">
<stop stop-color="#C1E4AC"/>
<stop offset="1" stop-color="#C1E4AC"/>
</linearGradient>
<linearGradient id="paint1_linear_71_37" x1="161" y1="92.6765" x2="202" y2="92.6765" gradientUnits="userSpaceOnUse">
<stop stop-color="#C1E4AC"/>
<stop offset="0.427696" stop-color="#C1E4AC"/>
<stop offset="1" stop-color="#C1E4AC"/>
</linearGradient>
<linearGradient id="paint2_linear_71_37" x1="289" y1="141.5" x2="325" y2="141.5" gradientUnits="userSpaceOnUse">
<stop stop-color="#323232"/>
<stop offset="1" stop-color="#2A2A2A"/>
</linearGradient>
<linearGradient id="paint3_linear_71_37" x1="282" y1="27.5" x2="317" y2="27.5" gradientUnits="userSpaceOnUse">
<stop stop-color="#323232"/>
<stop offset="1" stop-color="#2A2A2A"/>
</linearGradient>
<linearGradient id="paint4_linear_71_37" x1="216.627" y1="153.432" x2="251.49" y2="153.432" gradientUnits="userSpaceOnUse">
<stop stop-color="#323232"/>
<stop offset="1" stop-color="#2A2A2A"/>
</linearGradient>
<linearGradient id="paint5_linear_71_37" x1="119.859" y1="125.557" x2="155.115" y2="125.557" gradientUnits="userSpaceOnUse">
<stop stop-color="#323232"/>
<stop offset="1" stop-color="#2A2A2A"/>
</linearGradient>
<linearGradient id="paint6_linear_71_37" x1="132.888" y1="44.6225" x2="168.717" y2="44.6225" gradientUnits="userSpaceOnUse">
<stop stop-color="#323232"/>
<stop offset="1" stop-color="#2A2A2A"/>
</linearGradient>
<linearGradient id="paint7_linear_71_37" x1="18" y1="70.5" x2="53" y2="70.5" gradientUnits="userSpaceOnUse">
<stop stop-color="#323232"/>
<stop offset="1" stop-color="#2A2A2A"/>
</linearGradient>
<linearGradient id="paint8_linear_71_37" x1="97.5262" y1="89.8922" x2="107.225" y2="45.1512" gradientUnits="userSpaceOnUse">
<stop stop-color="#2A2A2A"/>
<stop offset="1" stop-color="#2A2A2A"/>
</linearGradient>
<linearGradient id="paint9_linear_71_37" x1="90.697" y1="34.403" x2="51.0571" y2="63.7761" gradientUnits="userSpaceOnUse">
<stop stop-color="#2A2A2A"/>
<stop offset="1" stop-color="#2A2A2A"/>
</linearGradient>
<linearGradient id="paint10_linear_71_37" x1="101.5" y1="125.5" x2="122.5" y2="170" gradientUnits="userSpaceOnUse">
<stop stop-color="#2B2B2B"/>
<stop offset="1" stop-color="#1C1C1C"/>
</linearGradient>
<linearGradient id="paint11_linear_71_37" x1="186.755" y1="70.6112" x2="195.042" y2="22.1077" gradientUnits="userSpaceOnUse">
<stop stop-color="#2B2B2B"/>
<stop offset="1" stop-color="#1C1C1C"/>
</linearGradient>
<linearGradient id="paint12_linear_71_37" x1="31.5936" y1="88.4783" x2="17.6133" y2="135.657" gradientUnits="userSpaceOnUse">
<stop stop-color="#2B2B2B"/>
<stop offset="1" stop-color="#1C1C1C"/>
</linearGradient>
<linearGradient id="paint13_linear_71_37" x1="318.594" y1="26.8194" x2="367.673" y2="23.2893" gradientUnits="userSpaceOnUse">
<stop stop-color="#2B2B2B"/>
<stop offset="1" stop-color="#1C1C1C"/>
</linearGradient>
<linearGradient id="paint14_linear_71_37" x1="326.572" y1="143.015" x2="375.659" y2="146.446" gradientUnits="userSpaceOnUse">
<stop stop-color="#2B2B2B"/>
<stop offset="1" stop-color="#1C1C1C"/>
</linearGradient>
<clipPath id="clip0_71_37">
<rect width="23" height="21" fill="white" transform="translate(253 79.1765)"/>
</clipPath>
<clipPath id="clip1_71_37">
<rect width="20" height="21" fill="white" transform="translate(171 82.1765)"/>
</clipPath>
</defs>
</svg>
