<svg width="316" height="238" viewBox="0 0 316 238" fill="none" xmlns="http://www.w3.org/2000/svg">
<path d="M23.5 218.9V170.7H32.7V218.9H23.5ZM4 199.4V190.2H52.2V199.4H4ZM73.0523 224V173.4H58.0523V164.7H64.1523C66.819 164.7 68.9857 164.367 70.6523 163.7C72.319 162.967 73.519 161.767 74.2523 160.1C74.9857 158.367 75.3523 156 75.3523 153H83.8523V224H73.0523ZM125.305 225.6C119.439 225.6 114.339 224.1 110.005 221.1C105.672 218.1 102.339 213.833 100.005 208.3C97.6721 202.767 96.5055 196.2 96.5055 188.6C96.5055 181 97.6721 174.433 100.005 168.9C102.405 163.3 105.739 159 110.005 156C114.339 152.933 119.439 151.4 125.305 151.4C131.239 151.4 136.339 152.933 140.605 156C144.939 159 148.272 163.267 150.605 168.8C153.005 174.333 154.205 180.933 154.205 188.6C154.205 196.2 153.039 202.767 150.705 208.3C148.372 213.833 145.039 218.1 140.705 221.1C136.372 224.1 131.239 225.6 125.305 225.6ZM125.305 215.7C130.972 215.7 135.339 213.367 138.405 208.7C141.472 204.033 143.005 197.333 143.005 188.6C143.005 182.733 142.305 177.767 140.905 173.7C139.572 169.633 137.572 166.567 134.905 164.5C132.305 162.367 129.105 161.3 125.305 161.3C121.572 161.3 118.372 162.367 115.705 164.5C113.105 166.567 111.105 169.633 109.705 173.7C108.372 177.767 107.705 182.733 107.705 188.6C107.705 197.333 109.239 204.033 112.305 208.7C115.372 213.367 119.705 215.7 125.305 215.7ZM190.786 225.6C184.919 225.6 179.819 224.1 175.486 221.1C171.153 218.1 167.819 213.833 165.486 208.3C163.153 202.767 161.986 196.2 161.986 188.6C161.986 181 163.153 174.433 165.486 168.9C167.886 163.3 171.219 159 175.486 156C179.819 152.933 184.919 151.4 190.786 151.4C196.719 151.4 201.819 152.933 206.086 156C210.419 159 213.753 163.267 216.086 168.8C218.486 174.333 219.686 180.933 219.686 188.6C219.686 196.2 218.519 202.767 216.186 208.3C213.853 213.833 210.519 218.1 206.186 221.1C201.853 224.1 196.719 225.6 190.786 225.6ZM190.786 215.7C196.453 215.7 200.819 213.367 203.886 208.7C206.953 204.033 208.486 197.333 208.486 188.6C208.486 182.733 207.786 177.767 206.386 173.7C205.053 169.633 203.053 166.567 200.386 164.5C197.786 162.367 194.586 161.3 190.786 161.3C187.053 161.3 183.853 162.367 181.186 164.5C178.586 166.567 176.586 169.633 175.186 173.7C173.853 177.767 173.186 182.733 173.186 188.6C173.186 197.333 174.719 204.033 177.786 208.7C180.853 213.367 185.186 215.7 190.786 215.7ZM229.702 224V153H244.502L265.602 211.3L286.702 153H301.502V224H290.702V172L271.602 223.9H259.602L240.502 172V224H229.702Z" fill="#C1E4AC"/>
<path d="M139.45 131.43V97.69H145.89V131.43H139.45ZM125.8 117.78V111.34H159.54V117.78H125.8ZM164.437 135C164.437 131.267 164.997 127.93 166.117 124.99C167.237 122.05 169.15 119.32 171.857 116.8C174.563 114.28 178.297 111.76 183.057 109.24C185.343 108.073 187.163 107 188.517 106.02C189.917 104.993 190.92 103.943 191.527 102.87C192.133 101.797 192.437 100.49 192.437 98.95C192.437 97.3633 192.087 96.01 191.387 94.89C190.733 93.7233 189.753 92.8133 188.447 92.16C187.14 91.46 185.483 91.11 183.477 91.11C180.303 91.11 177.783 91.9733 175.917 93.7C174.097 95.38 172.953 97.8067 172.487 100.98L164.647 100.49C165.207 95.4967 167.097 91.53 170.317 88.59C173.583 85.65 177.97 84.18 183.477 84.18C187.023 84.18 190.033 84.81 192.507 86.07C195.027 87.2833 196.94 88.9867 198.247 91.18C199.6 93.3733 200.277 95.9167 200.277 98.81C200.277 101.33 199.857 103.5 199.017 105.32C198.177 107.14 196.777 108.843 194.817 110.43C192.857 111.97 190.197 113.627 186.837 115.4C182.543 117.687 179.3 119.95 177.107 122.19C174.913 124.383 173.747 126.343 173.607 128.07H200.277V135H164.437ZM225.236 136.12C221.13 136.12 217.56 135.07 214.526 132.97C211.493 130.87 209.16 127.883 207.526 124.01C205.893 120.137 205.076 115.54 205.076 110.22C205.076 104.9 205.893 100.303 207.526 96.43C209.206 92.51 211.54 89.5 214.526 87.4C217.56 85.2533 221.13 84.18 225.236 84.18C229.39 84.18 232.96 85.2533 235.946 87.4C238.98 89.5 241.313 92.4867 242.946 96.36C244.626 100.233 245.466 104.853 245.466 110.22C245.466 115.54 244.65 120.137 243.016 124.01C241.383 127.883 239.05 130.87 236.016 132.97C232.983 135.07 229.39 136.12 225.236 136.12ZM225.236 129.19C229.203 129.19 232.26 127.557 234.406 124.29C236.553 121.023 237.626 116.333 237.626 110.22C237.626 106.113 237.136 102.637 236.156 99.79C235.223 96.9433 233.823 94.7967 231.956 93.35C230.136 91.8567 227.896 91.11 225.236 91.11C222.623 91.11 220.383 91.8567 218.516 93.35C216.696 94.7967 215.296 96.9433 214.316 99.79C213.383 102.637 212.916 106.113 212.916 110.22C212.916 116.333 213.99 121.023 216.136 124.29C218.283 127.557 221.316 129.19 225.236 129.19ZM251.877 135V85.3H262.237L277.007 126.11L291.777 85.3H302.137V135H294.577V98.6L281.207 134.93H272.807L259.437 98.6V135H251.877Z" fill="url(#paint0_linear_71_41)"/>
<path d="M198.75 64.45V40.35H203.35V64.45H198.75ZM189 54.7V50.1H213.1V54.7H189ZM222.526 67V41.7H215.026V37.35H218.076C219.41 37.35 220.493 37.1833 221.326 36.85C222.16 36.4833 222.76 35.8833 223.126 35.05C223.493 34.1833 223.676 33 223.676 31.5H227.926V67H222.526ZM247.653 67.8C244.719 67.8 242.169 67.05 240.003 65.55C237.836 64.05 236.169 61.9167 235.003 59.15C233.836 56.3833 233.253 53.1 233.253 49.3C233.253 45.5 233.836 42.2167 235.003 39.45C236.203 36.65 237.869 34.5 240.003 33C242.169 31.4667 244.719 30.7 247.653 30.7C250.619 30.7 253.169 31.4667 255.303 33C257.469 34.5 259.136 36.6333 260.303 39.4C261.503 42.1667 262.103 45.4667 262.103 49.3C262.103 53.1 261.519 56.3833 260.353 59.15C259.186 61.9167 257.519 64.05 255.353 65.55C253.186 67.05 250.619 67.8 247.653 67.8ZM247.653 62.85C250.486 62.85 252.669 61.6833 254.203 59.35C255.736 57.0167 256.503 53.6667 256.503 49.3C256.503 46.3667 256.153 43.8833 255.453 41.85C254.786 39.8167 253.786 38.2833 252.453 37.25C251.153 36.1833 249.553 35.65 247.653 35.65C245.786 35.65 244.186 36.1833 242.853 37.25C241.553 38.2833 240.553 39.8167 239.853 41.85C239.186 43.8833 238.853 46.3667 238.853 49.3C238.853 53.6667 239.619 57.0167 241.153 59.35C242.686 61.6833 244.853 62.85 247.653 62.85ZM266.111 67V31.5H273.511L284.061 60.65L294.611 31.5H302.011V67H296.611V41L287.061 66.95H281.061L271.511 41V67H266.111Z" fill="url(#paint1_linear_71_41)" fill-opacity="0.4"/>
<defs>
<linearGradient id="paint0_linear_71_41" x1="123" y1="110.5" x2="316" y2="110.5" gradientUnits="userSpaceOnUse">
<stop stop-color="#313131"/>
<stop offset="1" stop-color="#1D1D1D"/>
</linearGradient>
<linearGradient id="paint1_linear_71_41" x1="187" y1="49.5" x2="310" y2="49.5" gradientUnits="userSpaceOnUse">
<stop stop-color="#313131"/>
<stop offset="1" stop-color="#212121"/>
</linearGradient>
</defs>
</svg>
