<svg width="20" height="20" viewBox="0 0 20 20" fill="none" xmlns="http://www.w3.org/2000/svg">
<path d="M11.3892 2.3335L11.5259 2.33838L11.6372 2.35303C12.188 2.45129 12.6119 2.90768 12.6616 3.47412C12.6672 3.53791 12.6665 3.60347 12.6665 3.61084C12.6665 3.64127 12.6673 3.72121 12.6606 3.79736C12.5972 4.52253 12.0225 5.0972 11.2974 5.16064C11.2212 5.1673 11.1413 5.1665 11.1108 5.1665H8.88916C8.85871 5.1665 8.77884 5.16731 8.70264 5.16064C7.97754 5.09713 7.40279 4.52248 7.33936 3.79736C7.33271 3.72121 7.3335 3.64127 7.3335 3.61084C7.33346 3.60346 7.3328 3.53791 7.33838 3.47412C7.39143 2.87016 7.87016 2.39143 8.47412 2.33838C8.53791 2.3328 8.60346 2.33346 8.61084 2.3335H11.3892Z" stroke="#C2C2C2" stroke-width="2"/>
<rect x="5" y="2.5" width="10" height="15" rx="2" stroke="#C2C2C2" stroke-width="2"/>
<circle cx="9.99984" cy="14.9998" r="0.833333" fill="#C2C2C2"/>
</svg>
