<svg width="273" height="160" viewBox="0 0 273 160" fill="none" xmlns="http://www.w3.org/2000/svg">
<rect y="17" width="80" height="143" rx="10" fill="url(#paint0_linear_78_55)"/>
<rect x="94" width="85" height="160" rx="10" fill="url(#paint1_linear_78_55)"/>
<rect x="193" y="17" width="80" height="143" rx="10" fill="url(#paint2_linear_78_55)"/>
<rect x="5" y="22" width="70" height="134" rx="10" fill="#363636"/>
<rect x="198" y="22" width="70" height="134" rx="10" fill="#363636"/>
<rect x="99" y="5" width="74" height="151" rx="10" fill="#A5CD8D"/>
<rect x="25" y="25" width="29" height="5" rx="2.5" fill="url(#paint3_linear_78_55)"/>
<rect x="218" y="25" width="29" height="5" rx="2.5" fill="url(#paint4_linear_78_55)"/>
<rect x="121" y="8" width="29" height="6" rx="3" fill="url(#paint5_linear_78_55)"/>
<defs>
<linearGradient id="paint0_linear_78_55" x1="0" y1="88.5" x2="80" y2="88.5" gradientUnits="userSpaceOnUse">
<stop stop-color="#323232"/>
<stop offset="1" stop-color="#2A2A2A"/>
</linearGradient>
<linearGradient id="paint1_linear_78_55" x1="94" y1="80" x2="179" y2="80" gradientUnits="userSpaceOnUse">
<stop stop-color="#323232"/>
<stop offset="1" stop-color="#2A2A2A"/>
</linearGradient>
<linearGradient id="paint2_linear_78_55" x1="193" y1="88.5" x2="273" y2="88.5" gradientUnits="userSpaceOnUse">
<stop stop-color="#323232"/>
<stop offset="1" stop-color="#2A2A2A"/>
</linearGradient>
<linearGradient id="paint3_linear_78_55" x1="25" y1="27.5" x2="54" y2="27.5" gradientUnits="userSpaceOnUse">
<stop stop-color="#242424"/>
<stop offset="1" stop-color="#202020"/>
</linearGradient>
<linearGradient id="paint4_linear_78_55" x1="218" y1="27.5" x2="247" y2="27.5" gradientUnits="userSpaceOnUse">
<stop stop-color="#242424"/>
<stop offset="1" stop-color="#202020"/>
</linearGradient>
<linearGradient id="paint5_linear_78_55" x1="121" y1="11" x2="150" y2="11" gradientUnits="userSpaceOnUse">
<stop stop-color="#242424"/>
<stop offset="1" stop-color="#202020"/>
</linearGradient>
</defs>
</svg>
