<svg width="285" height="285" viewBox="0 0 285 285" fill="none" xmlns="http://www.w3.org/2000/svg">
<path d="M142.5 30.21C172.188 51.6444 196.579 57.4275 225.625 58.9V172.603C225.625 208.727 205.592 218.049 142.5 256.999C79.4438 218.073 59.375 208.727 59.375 172.603V58.9C88.4213 57.4275 112.812 51.6444 142.5 30.21ZM142.5 0C102.469 34.0337 77.3775 35.625 35.625 35.625V172.603C35.625 227.264 73.6606 241.526 142.5 285C211.339 241.526 249.375 227.264 249.375 172.603V35.625C207.622 35.625 182.531 34.0337 142.5 0Z" fill="url(#paint0_linear_84_32)"/>
<defs>
<linearGradient id="paint0_linear_84_32" x1="142.5" y1="0" x2="142.5" y2="285" gradientUnits="userSpaceOnUse">
<stop stop-color="#BFE1AA"/>
<stop offset="1" stop-color="#6F895E"/>
</linearGradient>
</defs>
</svg>
