<svg width="38" height="32" viewBox="0 0 38 32" fill="none" xmlns="http://www.w3.org/2000/svg">
<path d="M4.75 9.33325H10.1908C12.9175 9.33325 14.2808 9.33325 15.3176 10.0645C16.3543 10.7958 16.8119 12.08 17.7269 14.6485L18.6898 17.3513C19.6048 19.9198 20.0623 21.2041 21.0991 21.9353C22.1359 22.6666 23.4992 22.6666 26.2258 22.6666H33.25M28.5 26.6666L33.25 22.6666L28.5 18.6666" stroke="#AAAAAA" stroke-width="2"/>
<path d="M16.3477 18.2266C16.7045 19.2282 17.034 20.1547 17.3789 20.9424C16.9976 21.6825 16.549 22.2896 15.8936 22.752C15.1881 23.2495 14.4052 23.4664 13.5 23.5684C12.6199 23.6675 11.5311 23.666 10.1904 23.666H4.75V21.666H10.1904C11.5764 21.666 12.534 21.6647 13.2764 21.5811C13.9932 21.5002 14.4101 21.3517 14.7412 21.1182C15.0723 20.8846 15.3523 20.5416 15.6689 19.8936C15.884 19.4533 16.0953 18.9137 16.3477 18.2266ZM33.8945 8.56836L34.8027 9.33301L33.8945 10.0977L29.1445 14.0977L27.8555 12.5684L30.5098 10.333H26.2256C24.8398 10.333 23.883 10.3343 23.1406 10.418C22.4236 10.4988 22.007 10.6483 21.6758 10.8818C21.3446 11.1154 21.0638 11.4582 20.7471 12.1064C20.5321 12.5465 20.3203 13.0858 20.0684 13.7725C19.7117 12.7711 19.382 11.845 19.0371 11.0576C19.4183 10.3174 19.867 9.70942 20.5225 9.24707C21.228 8.74953 22.0117 8.53266 22.917 8.43066C23.797 8.33153 24.8852 8.33301 26.2256 8.33301H30.5098L27.8555 6.09766L29.1445 4.56836L33.8945 8.56836Z" fill="#AAAAAA"/>
</svg>
