<svg width="20" height="20" viewBox="0 0 20 20" fill="none" xmlns="http://www.w3.org/2000/svg">
<path fill-rule="evenodd" clip-rule="evenodd" d="M9.91667 8.41358L18.0186 0.31025C18.2254 0.103416 18.4988 0 18.7708 0C19.3432 0 19.8333 0.458999 19.8333 1.06108C19.8333 1.3345 19.7299 1.6065 19.5231 1.81475L11.4198 9.91667L19.5217 18.0186C19.7299 18.2268 19.8333 18.4988 19.8333 18.7708C19.8333 19.3757 19.3389 19.8333 18.7708 19.8333C18.4988 19.8333 18.2254 19.7299 18.0186 19.5231L9.91667 11.4212L1.81475 19.5231C1.60792 19.7299 1.3345 19.8333 1.0625 19.8333C0.494417 19.8333 0 19.3757 0 18.7708C0 18.4988 0.103416 18.2268 0.311666 18.0186L8.41358 9.91667L0.31025 1.81475C0.103416 1.6065 0 1.3345 0 1.06108C0 0.458999 0.490167 0 1.0625 0C1.3345 0 1.60792 0.103416 1.81475 0.31025L9.91667 8.41358Z" fill="white"/>
</svg>
